<svg id="Capa_1" data-name="Capa 1" xmlns="http://www.w3.org/2000/svg" viewBox="0 0 1199.83 1199.84"><defs><style>.cls-1{fill:#fff;}.cls-10,.cls-11,.cls-2,.cls-3,.cls-4,.cls-5,.cls-6,.cls-7,.cls-8,.cls-9{fill:none;stroke-linecap:round;stroke-linejoin:round;}.cls-2,.cls-4,.cls-6{stroke:#231f20;}.cls-2,.cls-3,.cls-4,.cls-5,.cls-6{stroke-width:2px;}.cls-11,.cls-3,.cls-7,.cls-9{stroke:#e40039;}.cls-4{stroke-dasharray:12;}.cls-10,.cls-5,.cls-8{stroke:#000;}.cls-6{stroke-dasharray:13.28 13.28;}.cls-7{stroke-width:2px;}.cls-8,.cls-9{stroke-width:2px;}.cls-10,.cls-11{stroke-width:2px;}</style></defs><g id="Layer_1" data-name="Layer 1"><rect class="cls-1" width="1199.83" height="1199.84"/></g><g id="Layer_2" data-name="Layer 2"><path class="cls-2" d="M502.58,1096.47c-11.17-11.18,3-25.32-8.21-36.49s-25.31,3-36.49-8.21,3-25.32-8.21-36.5-25.32,3-36.5-8.21,3-25.32-8.21-36.5"/><path class="cls-2" d="M1016.32,327.3c0-15.81,20-15.81,20-31.61s-20-15.81-20-31.61,20-15.81,20-31.61-20-15.81-20-31.62,20-15.8,20-31.61"/><path class="cls-2" d="M1137,797.56c0-15.81,20-15.81,20-31.61s-20-15.81-20-31.61,20-15.81,20-31.61-20-15.81-20-31.62,20-15.81,20-31.61"/><path class="cls-2" d="M65.45,188c0-15.8,20-15.8,20-31.61s-20-15.8-20-31.61,20-15.8,20-31.61-20-15.8-20-31.61,20-15.81,20-31.62"/><path class="cls-3" d="M366.26,876.58c0-15.8,20-15.8,20-31.6s-20-15.81-20-31.62,20-15.8,20-31.61-20-15.8-20-31.61,20-15.81,20-31.61"/><polyline class="cls-2" points="662.62 1001.14 654.41 964.65 617.91 956.44 609.71 919.95 573.21 911.73 564.99 875.24"/><polyline class="cls-2" points="289.38 485.88 309.38 454.27 289.38 422.66 309.38 391.05 289.38 359.44 309.38 327.82"/><polyline class="cls-4" points="315.69 421.07 335.69 389.46 315.69 357.85 335.69 326.24 315.69 294.62 335.69 263.01"/><polyline class="cls-3" points="1126.59 1129.33 1118.38 1092.84 1081.89 1084.63 1073.68 1048.13 1037.18 1039.92 1028.97 1003.42"/><polyline class="cls-4" points="1099.36 1064.9 1091.15 1028.4 1054.66 1020.19 1046.45 983.7 1009.95 975.49 1001.74 938.99"/><polyline class="cls-2" points="725.43 374.45 745.43 342.84 725.43 311.22 745.43 279.61"/><polyline class="cls-2" points="772.7 342.84 752.7 311.22 772.7 279.61"/><polyline class="cls-2" points="258.93 621.87 238.93 590.26 258.93 558.64"/><polyline class="cls-2" points="410.57 93.75 390.57 62.14 410.57 30.53"/><polyline class="cls-2" points="1102.96 152.83 1122.96 121.22 1102.96 89.6 1122.96 57.99"/><polyline class="cls-2" points="1150.22 121.22 1130.22 89.6 1150.22 57.99"/><polyline class="cls-3" points="616.92 1149.4 636.92 1117.79 616.92 1086.17 636.92 1054.56"/><polyline class="cls-2" points="664.19 1117.79 644.19 1086.17 664.19 1054.56"/><polyline class="cls-2" points="1001.65 619.29 993.44 582.8 956.94 574.59 948.73 538.09"/><polyline class="cls-3" points="1012.72 563.52 976.22 555.31 968.01 518.81"/><polyline class="cls-2" points="260.22 140.27 252.01 103.77 215.51 95.56 207.3 59.06"/><polyline class="cls-3" points="271.28 84.49 234.79 76.28 226.58 39.79"/><polyline class="cls-3" points="773.87 958.43 793.87 926.82 773.87 895.21 793.87 863.6"/><polyline class="cls-2" points="949.04 927.09 929.04 895.48 949.04 863.86"/><polyline class="cls-2" points="121.06 311.22 101.06 279.61 121.06 247.99"/><line class="cls-2" x1="841.01" y1="807.13" x2="880.5" y2="807.13"/><line class="cls-2" x1="860.75" y1="787.39" x2="860.75" y2="826.88"/><line class="cls-2" x1="270.99" y1="732" x2="310.48" y2="732"/><line class="cls-2" x1="290.74" y1="712.26" x2="290.74" y2="751.74"/><line class="cls-2" x1="715.69" y1="99.22" x2="755.17" y2="99.22"/><line class="cls-2" x1="735.43" y1="79.48" x2="735.43" y2="118.96"/><line class="cls-3" x1="406.7" y1="421.07" x2="446.19" y2="421.07"/><line class="cls-3" x1="426.44" y1="401.33" x2="426.44" y2="440.81"/><line class="cls-3" x1="545.25" y1="985.91" x2="584.74" y2="985.91"/><line class="cls-3" x1="565" y1="966.17" x2="565" y2="1005.65"/><line class="cls-5" x1="197.72" y1="1057.13" x2="237.2" y2="1057.13"/><line class="cls-5" x1="217.46" y1="1037.39" x2="217.46" y2="1076.87"/><circle class="cls-2" cx="970.87" cy="807.13" r="16.04"/><circle class="cls-2" cx="447.92" cy="927.05" r="16.04"/><line class="cls-3" x1="1011.32" y1="1120.39" x2="1050.8" y2="1120.39"/><line class="cls-3" x1="1031.06" y1="1100.64" x2="1031.06" y2="1140.13"/><circle class="cls-2" cx="968.71" cy="1057.13" r="16.04" transform="translate(-56.98 55.19) rotate(-3.17)"/><polyline class="cls-2" points="272.84 898.15 267.65 901.15 272.84 904.15"/><line class="cls-6" x1="284.34" y1="910.79" x2="301.59" y2="920.75"/><polyline class="cls-2" points="307.34 924.07 312.53 927.07 312.53 921.07"/><line class="cls-6" x1="312.53" y1="907.79" x2="312.53" y2="887.88"/><polyline class="cls-2" points="312.53 881.24 312.53 875.24 307.34 878.24"/><line class="cls-6" x1="295.84" y1="884.88" x2="278.59" y2="894.83"/><polygon class="cls-4" points="518.64 59.06 563.52 84.98 563.52 33.15 518.64 59.06"/><line class="cls-3" x1="806.9" y1="439.77" x2="834.82" y2="467.69"/><line class="cls-3" x1="834.82" y1="439.77" x2="806.9" y2="467.69"/><circle class="cls-7" cx="1080.24" cy="542.93" r="16.04" transform="translate(-123.87 651.58) rotate(-31.84)"/><circle class="cls-8" cx="189.37" cy="461.87" r="16.04" transform="translate(-160.91 106.22) rotate(-22.27)"/><polyline class="cls-2" points="110.81 925.48 102.6 888.98 66.1 880.77 57.89 844.28"/><polyline class="cls-3" points="121.88 869.71 85.38 861.49 77.17 825"/><circle class="cls-9" cx="189.37" cy="849.09" r="16.04"/><polyline class="cls-2" points="460.08 298.51 451.87 262.02 415.38 253.8 407.16 217.31"/><polyline class="cls-3" points="471.15 242.74 434.66 234.53 426.44 198.03"/><circle class="cls-3" cx="538.64" cy="222.14" r="16.04"/><polygon class="cls-3" points="1027.81 732.96 1040.28 779.54 1074.38 745.44 1027.81 732.96"/><polygon class="cls-3" points="395.01 1065.56 407.49 1112.13 441.59 1078.04 395.01 1065.56"/><polygon class="cls-3" points="67.21 373.42 79.69 419.99 113.78 385.9 67.21 373.42"/><rect class="cls-2" x="898.96" y="373.42" width="34.26" height="34.26"/><rect class="cls-3" x="1119.87" y="294.09" width="34.26" height="34.26"/><rect class="cls-10" x="906.06" y="672.68" width="34.26" height="34.26" transform="translate(-217.37 854.83) rotate(-45)"/><rect class="cls-10" x="40.76" y="539.96" width="34.26" height="34.26" transform="translate(-376.96 204.1) rotate(-45)"/><rect class="cls-10" x="44.72" y="1114.19" width="34.26" height="34.26" transform="translate(-781.85 375.09) rotate(-45)"/><rect class="cls-10" x="1119.87" y="893.88" width="34.26" height="34.26" transform="translate(-311.16 1070.81) rotate(-45)"/><rect class="cls-3" x="711.18" y="797.55" width="34.26" height="34.26"/><rect class="cls-11" x="171.53" y="205" width="34.26" height="34.26" transform="translate(-101.81 198.46) rotate(-45)"/><rect class="cls-2" x="881.62" y="111.6" width="57.34" height="57.34"/><polygon class="cls-4" points="871.03 99.22 871.03 156.56 881.62 168.94 881.62 111.6 871.03 99.22"/><polygon class="cls-4" points="928.37 99.22 871.03 99.22 881.62 111.6 938.96 111.6 928.37 99.22"/><rect class="cls-5" x="795.95" y="1073.99" width="57.34" height="57.34"/><polygon class="cls-5" points="785.37 1061.61 785.37 1118.95 795.95 1131.33 795.95 1073.99 785.37 1061.61"/><polygon class="cls-5" points="842.71 1061.61 785.37 1061.61 795.95 1073.99 853.3 1073.99 842.71 1061.61"/><rect class="cls-3" x="131.65" y="635.28" width="57.34" height="57.34"/><polygon class="cls-3" points="121.06 622.9 121.06 680.24 131.65 692.62 131.65 635.28 121.06 622.9"/><polygon class="cls-3" points="178.41 622.9 121.06 622.9 131.65 635.28 188.99 635.28 178.41 622.9"/><rect class="cls-5" x="545.42" y="734.58" width="57.34" height="57.34"/><polygon class="cls-5" points="534.84 722.2 534.84 779.54 545.42 791.92 545.42 734.58 534.84 722.2"/><polygon class="cls-5" points="592.18 722.2 534.84 722.2 545.42 734.58 602.77 734.58 592.18 722.2"/><polyline class="cls-2" points="732.8 702.8 724.59 666.31 688.09 658.1 679.88 621.6"/><polyline class="cls-3" points="738.05 641.64 701.55 633.43 693.34 596.93"/><polyline class="cls-2" points="579.61 589.35 599.61 557.74 579.61 526.13 599.61 494.52 579.61 462.91 599.61 431.29"/><polyline class="cls-4" points="605.92 524.54 625.92 492.93 605.92 461.32 625.92 429.71 605.92 398.09 625.92 366.48"/><path class="cls-2" d="M471.15,698.32c0-15.81,20-15.81,20-31.61s-20-15.81-20-31.61,20-15.81,20-31.61-20-15.81-20-31.62,20-15.8,20-31.61"/><rect class="cls-10" x="619.79" y="231.14" width="34.26" height="34.26" transform="translate(11 523.09) rotate(-45)"/></g></svg>