<?xml version="1.0" encoding="utf-8"?>
<!-- Generator: Adobe Illustrator 24.2.1, SVG Export Plug-In . SVG Version: 6.00 Build 0)  -->
<svg version="1.1" id="Capa_1" xmlns="http://www.w3.org/2000/svg" xmlns:xlink="http://www.w3.org/1999/xlink" x="0px" y="0px"
	 viewBox="0 0 1199.8 1199.8" style="enable-background:new 0 0 1199.8 1199.8;" xml:space="preserve">
<style type="text/css">
	.st0{fill:none;stroke:#231F20;stroke-width:2;stroke-linecap:round;stroke-linejoin:round;}
	.st1{fill:none;stroke:#F9B85B;stroke-width:2;stroke-linecap:round;stroke-linejoin:round;}
	.st2{fill:none;stroke:#231F20;stroke-width:2;stroke-linecap:round;stroke-linejoin:round;stroke-dasharray:12;}
	.st3{fill:none;stroke:#000000;stroke-width:2;stroke-linecap:round;stroke-linejoin:round;}
	.st4{fill:none;stroke:#231F20;stroke-width:2.0001;stroke-linecap:round;stroke-linejoin:round;stroke-miterlimit:4.0001;}
	.st5{fill:none;stroke:#231F20;stroke-width:2;stroke-linecap:round;stroke-linejoin:round;stroke-dasharray:13.28,13.28;}
	.st6{fill:none;stroke:#F9B85B;stroke-width:1.9999;stroke-linecap:round;stroke-linejoin:round;stroke-miterlimit:3.9998;}
	.st7{fill:none;stroke:#000000;stroke-width:2;stroke-linecap:round;stroke-linejoin:round;stroke-miterlimit:4;}
	.st8{fill:none;stroke:#F9B85B;stroke-width:2;stroke-linecap:round;stroke-linejoin:round;stroke-miterlimit:4;}
</style>
<g id="Layer_2">
	<path class="st0" d="M93.8,497.9c11.2-11.2,25.3,3,36.5-8.2s-3-25.3,8.2-36.5s25.3,3,36.5-8.2s-3-25.3,8.2-36.5s25.3,3,36.5-8.2"/>
	<path class="st0" d="M863,1011.6c15.8,0,15.8,20,31.6,20c15.8,0,15.8-20,31.6-20c15.8,0,15.8,20,31.6,20s15.8-20,31.6-20
		c15.8,0,15.8,20,31.6,20"/>
	<path class="st0" d="M392.7,1132.3c15.8,0,15.8,20,31.6,20s15.8-20,31.6-20s15.8,20,31.6,20s15.8-20,31.6-20
		c15.8,0,15.8,20,31.6,20"/>
	<path class="st0" d="M1002.3,60.8c15.8,0,15.8,20,31.6,20c15.8,0,15.8-20,31.6-20c15.8,0,15.8,20,31.6,20c15.8,0,15.8-20,31.6-20
		s15.8,20,31.6,20"/>
	<path class="st1" d="M313.7,361.6c15.8,0,15.8,20,31.6,20s15.8-20,31.6-20s15.8,20,31.6,20s15.8-20,31.6-20s15.8,20,31.6,20"/>
	<polyline class="st0" points="189.2,657.9 225.7,649.7 233.9,613.2 270.4,605 278.6,568.5 315.1,560.3 	"/>
	<polyline class="st0" points="704.4,284.7 736,304.7 767.6,284.7 799.3,304.7 830.9,284.7 862.5,304.7 	"/>
	<polyline class="st2" points="769.2,311 800.8,331 832.5,311 864.1,331 895.7,311 927.3,331 	"/>
	<polyline class="st1" points="61,1121.9 97.5,1113.7 105.7,1077.2 142.2,1069 150.4,1032.5 186.9,1024.3 	"/>
	<polyline class="st2" points="125.4,1094.7 161.9,1086.5 170.1,1050 206.6,1041.8 214.8,1005.3 251.3,997 	"/>
	<polyline class="st0" points="815.9,720.7 847.5,740.7 879.1,720.7 910.7,740.7 	"/>
	<polyline class="st0" points="847.5,768 879.1,748 910.7,768 	"/>
	<polyline class="st0" points="568.4,254.2 600,234.2 631.7,254.2 	"/>
	<polyline class="st0" points="1096.6,405.9 1128.2,385.9 1159.8,405.9 	"/>
	<polyline class="st0" points="1037.5,1098.3 1069.1,1118.3 1100.7,1098.3 1132.3,1118.3 	"/>
	<polyline class="st0" points="1069.1,1145.5 1100.7,1125.5 1132.3,1145.5 	"/>
	<polyline class="st1" points="40.9,612.2 72.5,632.2 104.1,612.2 135.7,632.2 	"/>
	<polyline class="st0" points="72.5,659.5 104.1,639.5 135.7,659.5 	"/>
	<polyline class="st0" points="571,997 607.5,988.7 615.7,952.2 652.2,944 	"/>
	<polyline class="st1" points="626.8,1008 635,971.5 671.5,963.3 	"/>
	<polyline class="st0" points="1050,255.5 1086.5,247.3 1094.7,210.8 1131.2,202.6 	"/>
	<polyline class="st1" points="1105.8,266.6 1114,230.1 1150.5,221.9 	"/>
	<polyline class="st1" points="231.9,769.2 263.5,789.2 295.1,769.2 326.7,789.2 	"/>
	<polyline class="st0" points="263.2,944.3 294.8,924.3 326.4,944.3 	"/>
	<polyline class="st0" points="879.1,116.4 910.7,96.4 942.3,116.4 	"/>
	<line class="st0" x1="383.2" y1="836.3" x2="383.2" y2="875.8"/>
	<line class="st0" x1="402.9" y1="856.1" x2="363.4" y2="856.1"/>
	<line class="st0" x1="458.3" y1="266.3" x2="458.3" y2="305.8"/>
	<line class="st0" x1="478" y1="286" x2="438.6" y2="286"/>
	<line class="st0" x1="1091.1" y1="711" x2="1091.1" y2="750.5"/>
	<line class="st0" x1="1110.8" y1="730.7" x2="1071.3" y2="730.7"/>
	<line class="st1" x1="769.2" y1="402" x2="769.2" y2="441.5"/>
	<line class="st1" x1="789" y1="421.7" x2="749.5" y2="421.7"/>
	<line class="st1" x1="204.4" y1="540.6" x2="204.4" y2="580"/>
	<line class="st1" x1="224.1" y1="560.3" x2="184.7" y2="560.3"/>
	<line class="st3" x1="133.2" y1="193" x2="133.2" y2="232.5"/>
	<line class="st3" x1="152.9" y1="212.8" x2="113.4" y2="212.8"/>
	<circle class="st0" cx="383.2" cy="966.2" r="16"/>
	<circle class="st0" cx="263.3" cy="443.2" r="16"/>
	<line class="st1" x1="69.9" y1="1006.6" x2="69.9" y2="1046.1"/>
	<line class="st1" x1="89.7" y1="1026.4" x2="50.2" y2="1026.4"/>
	<ellipse class="st4" cx="133.2" cy="964" rx="16" ry="16"/>
	<polyline class="st0" points="292.2,268.1 289.2,263 286.2,268.1 	"/>
	<line class="st5" x1="279.5" y1="279.6" x2="269.6" y2="296.9"/>
	<polyline class="st0" points="266.2,302.6 263.2,307.8 269.2,307.8 	"/>
	<line class="st5" x1="282.5" y1="307.8" x2="302.4" y2="307.8"/>
	<polyline class="st0" points="309.1,307.8 315.1,307.8 312.1,302.6 	"/>
	<line class="st5" x1="305.4" y1="291.1" x2="295.5" y2="273.9"/>
	<polygon class="st2" points="1131.2,513.9 1105.3,558.8 1157.2,558.8 	"/>
	<line class="st1" x1="750.5" y1="802.2" x2="722.6" y2="830.1"/>
	<line class="st1" x1="750.5" y1="830.1" x2="722.6" y2="802.2"/>
	<ellipse class="st6" cx="647.3" cy="1075.4" rx="16" ry="16"/>
	<ellipse class="st7" cx="728.4" cy="184.7" rx="16" ry="16"/>
	<polyline class="st0" points="264.8,106.1 301.3,97.9 309.5,61.4 346,53.2 	"/>
	<polyline class="st1" points="320.6,117.2 328.8,80.7 365.3,72.5 	"/>
	<circle class="st1" cx="341.2" cy="184.7" r="16"/>
	<polyline class="st0" points="891.8,455.4 928.3,447.2 936.5,410.7 973,402.5 	"/>
	<polyline class="st1" points="947.6,466.5 955.8,430 992.3,421.7 	"/>
	<circle class="st1" cx="968.2" cy="533.9" r="16"/>
	<polygon class="st1" points="457.3,1023.1 410.8,1035.6 444.9,1069.7 	"/>
	<polygon class="st1" points="124.7,390.3 78.2,402.8 112.3,436.9 	"/>
	<polygon class="st1" points="816.9,62.5 770.3,75 804.4,109.1 	"/>
	<rect x="782.6" y="894.3" class="st0" width="34.3" height="34.3"/>
	<rect x="861.9" y="1115.2" class="st1" width="34.3" height="34.3"/>
	
		<rect x="483.4" y="901.4" transform="matrix(0.7071 -0.7071 0.7071 0.7071 -502.903 622.9472)" class="st7" width="34.3" height="34.3"/>
	
		<rect x="616.1" y="36.1" transform="matrix(0.7071 -0.7071 0.7071 0.7071 147.807 463.353)" class="st7" width="34.3" height="34.3"/>
	
		<rect x="41.8" y="40" transform="matrix(0.7071 -0.7071 0.7071 0.7071 -23.1344 58.4357)" class="st7" width="34.3" height="34.3"/>
	
		<rect x="262.2" y="1115.2" transform="matrix(0.7071 -0.7071 0.7071 0.7071 -718.8738 529.1509)" class="st7" width="34.3" height="34.3"/>
	<rect x="358.5" y="706.5" class="st1" width="34.3" height="34.3"/>
	
		<rect x="951" y="166.8" transform="matrix(0.7071 -0.7071 0.7071 0.7071 153.4966 738.4689)" class="st8" width="34.3" height="34.3"/>
	<rect x="1021.4" y="876.9" class="st0" width="57.3" height="57.3"/>
	<polygon class="st2" points="1091.1,866.3 1033.7,866.3 1021.4,876.9 1078.7,876.9 	"/>
	<polygon class="st2" points="1091.1,923.7 1091.1,866.3 1078.7,876.9 1078.7,934.3 	"/>
	<rect x="59" y="791.3" class="st3" width="57.3" height="57.3"/>
	<polygon class="st3" points="128.7,780.7 71.4,780.7 59,791.3 116.3,791.3 	"/>
	<polygon class="st3" points="128.7,838 128.7,780.7 116.3,791.3 116.3,848.6 	"/>
	<rect x="497.7" y="127" class="st1" width="57.3" height="57.3"/>
	<polygon class="st1" points="567.4,116.4 510.1,116.4 497.7,127 555,127 	"/>
	<polygon class="st1" points="567.4,173.7 567.4,116.4 555,127 555,184.3 	"/>
	<rect x="398.4" y="540.7" class="st3" width="57.3" height="57.3"/>
	<polygon class="st3" points="468.1,530.1 410.8,530.1 398.4,540.7 455.7,540.7 	"/>
	<polygon class="st3" points="468.1,587.5 468.1,530.1 455.7,540.7 455.7,598.1 	"/>
	<polyline class="st0" points="487.5,728.1 524,719.9 532.2,683.4 568.7,675.2 	"/>
	<polyline class="st1" points="548.7,733.3 556.9,696.8 593.4,688.6 	"/>
	<polyline class="st0" points="600.9,574.9 632.6,594.9 664.2,574.9 695.8,594.9 727.4,574.9 759,594.9 	"/>
	<polyline class="st2" points="665.8,601.2 697.4,621.2 729,601.2 760.6,621.2 792.2,601.2 823.8,621.2 	"/>
	<path class="st0" d="M492,466.5c15.8,0,15.8,20,31.6,20c15.8,0,15.8-20,31.6-20s15.8,20,31.6,20s15.8-20,31.6-20s15.8,20,31.6,20"
		/>
	
		<rect x="924.9" y="615.1" transform="matrix(0.7071 -0.7071 0.7071 0.7071 -171.1112 851.3129)" class="st7" width="34.3" height="34.3"/>
</g>
</svg>
