<svg xmlns="http://www.w3.org/2000/svg" viewBox="0 0 1199.83 1199.84"><defs><style>.cls-1{fill:#fff;}.cls-2,.cls-3,.cls-4,.cls-5,.cls-6{fill:none;stroke-linecap:round;stroke-linejoin:round;stroke-width:2px;}.cls-2,.cls-4,.cls-6{stroke:#231f20;}.cls-3{stroke:#ffcd5b;}.cls-4{stroke-dasharray:12;}.cls-5{stroke:#000;}.cls-6{stroke-dasharray:13.28 13.28;}</style></defs><g id="Layer_1" data-name="Layer 1"><rect class="cls-1" width="1199.83" height="1199.84"/></g><g id="Layer_2" data-name="Layer 2"><path class="cls-2" d="M93.7,497.86c11.18-11.17,25.32,3,36.49-8.21s-3-25.31,8.21-36.49,25.32,3,36.5-8.21-3-25.32,8.21-36.5,25.32,3,36.5-8.21" transform="translate(0 0)"/><path class="cls-2" d="M862.87,1011.6c15.81,0,15.81,20,31.61,20s15.81-20,31.61-20,15.81,20,31.61,20,15.81-20,31.62-20,15.8,20,31.61,20" transform="translate(0 0)"/><path class="cls-2" d="M392.61,1132.28c15.81,0,15.81,20,31.61,20s15.81-20,31.61-20,15.81,20,31.61,20,15.81-20,31.62-20,15.81,20,31.61,20" transform="translate(0 0)"/><path class="cls-2" d="M1002.21,60.73c15.8,0,15.8,20,31.61,20s15.8-20,31.61-20,15.8,20,31.61,20,15.8-20,31.61-20,15.81,20,31.62,20" transform="translate(0 0)"/><path class="cls-3" d="M313.59,361.54c15.8,0,15.8,20,31.6,20s15.81-20,31.62-20,15.8,20,31.61,20,15.8-20,31.61-20,15.81,20,31.61,20" transform="translate(0 0)"/><polyline class="cls-2" points="189.03 657.9 225.52 649.69 233.73 613.19 270.22 604.99 278.44 568.49 314.93 560.27"/><polyline class="cls-2" points="704.29 284.66 735.9 304.66 767.51 284.66 799.12 304.66 830.73 284.66 862.35 304.66"/><polyline class="cls-4" points="769.1 310.97 800.71 330.97 832.32 310.97 863.93 330.97 895.55 310.97 927.16 330.97"/><polyline class="cls-3" points="60.84 1121.87 97.33 1113.66 105.54 1077.17 142.04 1068.96 150.25 1032.46 186.75 1024.25"/><polyline class="cls-4" points="125.27 1094.64 161.77 1086.43 169.98 1049.94 206.47 1041.73 214.68 1005.23 251.18 997.02"/><polyline class="cls-2" points="815.72 720.71 847.33 740.71 878.95 720.71 910.56 740.71"/><polyline class="cls-2" points="847.33 767.98 878.95 747.98 910.56 767.98"/><polyline class="cls-2" points="568.3 254.21 599.91 234.21 631.53 254.21"/><polyline class="cls-2" points="1096.42 405.85 1128.03 385.85 1159.64 405.85"/><polyline class="cls-2" points="1037.34 1098.24 1068.95 1118.24 1100.57 1098.24 1132.18 1118.24"/><polyline class="cls-2" points="1068.95 1145.5 1100.57 1125.5 1132.18 1145.5"/><polyline class="cls-3" points="40.77 612.2 72.38 632.2 104 612.2 135.61 632.2"/><polyline class="cls-2" points="72.38 659.47 104 639.47 135.61 659.47"/><polyline class="cls-2" points="570.88 996.93 607.37 988.72 615.58 952.22 652.08 944.01"/><polyline class="cls-3" points="626.65 1008 634.86 971.5 671.36 963.29"/><polyline class="cls-2" points="1049.9 255.5 1086.4 247.29 1094.61 210.79 1131.11 202.58"/><polyline class="cls-3" points="1105.68 266.56 1113.89 230.07 1150.38 221.86"/><polyline class="cls-3" points="231.74 769.15 263.35 789.15 294.96 769.15 326.57 789.15"/><polyline class="cls-2" points="263.08 944.32 294.69 924.32 326.31 944.32"/><polyline class="cls-2" points="878.95 116.34 910.56 96.34 942.18 116.34"/><line class="cls-2" x1="383.04" y1="836.29" x2="383.04" y2="875.78"/><line class="cls-2" x1="402.78" y1="856.03" x2="363.29" y2="856.03"/><line class="cls-2" x1="458.17" y1="266.27" x2="458.17" y2="305.76"/><line class="cls-2" x1="477.91" y1="286.02" x2="438.43" y2="286.02"/><line class="cls-2" x1="1090.95" y1="710.97" x2="1090.95" y2="750.45"/><line class="cls-2" x1="1110.69" y1="730.71" x2="1071.21" y2="730.71"/><line class="cls-3" x1="769.1" y1="401.98" x2="769.1" y2="441.47"/><line class="cls-3" x1="788.84" y1="421.72" x2="749.36" y2="421.72"/><line class="cls-3" x1="204.26" y1="540.53" x2="204.26" y2="580.02"/><line class="cls-3" x1="224" y1="560.28" x2="184.52" y2="560.28"/><line class="cls-5" x1="133.04" y1="193" x2="133.04" y2="232.48"/><line class="cls-5" x1="152.78" y1="212.74" x2="113.3" y2="212.74"/><circle class="cls-2" cx="383.04" cy="966.15" r="16.04"/><circle class="cls-2" cx="263.12" cy="443.2" r="16.04"/><line class="cls-3" x1="69.78" y1="1006.6" x2="69.78" y2="1046.08"/><line class="cls-3" x1="89.53" y1="1026.34" x2="50.04" y2="1026.34"/><circle class="cls-2" cx="133.04" cy="963.99" r="16.04"/><polyline class="cls-2" points="292.02 268.12 289.02 262.93 286.02 268.12"/><line class="cls-6" x1="279.38" y1="279.62" x2="269.42" y2="296.87"/><polyline class="cls-2" points="266.1 302.62 263.1 307.81 269.1 307.81"/><line class="cls-6" x1="282.38" y1="307.81" x2="302.29" y2="307.81"/><polyline class="cls-2" points="308.93 307.81 314.93 307.81 311.93 302.62"/><line class="cls-6" x1="305.29" y1="291.12" x2="295.34" y2="273.87"/><polygon class="cls-4" points="1131.11 513.92 1105.19 558.8 1157.02 558.8 1131.11 513.92"/><line class="cls-3" x1="750.4" y1="802.18" x2="722.48" y2="830.1"/><line class="cls-3" x1="750.4" y1="830.1" x2="722.48" y2="802.18"/><circle class="cls-3" cx="647.25" cy="1075.48" r="16.04" transform="translate(-469.99 503.33) rotate(-31.84)"/><circle class="cls-5" cx="728.29" cy="184.65" r="16.04" transform="translate(-15.65 289.77) rotate(-22.27)"/><polyline class="cls-2" points="264.69 106.09 301.19 97.88 309.4 61.38 345.89 53.17"/><polyline class="cls-3" points="320.46 117.16 328.68 80.66 365.17 72.45"/><circle class="cls-3" cx="341.07" cy="184.65" r="16.04" transform="translate(-44.53 143.03) rotate(-22.27)"/><polyline class="cls-2" points="891.66 455.36 928.15 447.15 936.37 410.66 972.86 402.44"/><polyline class="cls-3" points="947.43 466.43 955.64 429.94 992.14 421.72"/><circle class="cls-3" cx="968.03" cy="533.92" r="16.04"/><polygon class="cls-3" points="457.21 1023.09 410.63 1035.56 444.73 1069.66 457.21 1023.09"/><polygon class="cls-3" points="124.61 390.29 78.04 402.77 112.13 436.87 124.61 390.29"/><polygon class="cls-3" points="816.75 62.49 770.18 74.97 804.27 109.06 816.75 62.49"/><rect class="cls-2" x="782.49" y="894.24" width="34.26" height="34.26"/><rect class="cls-3" x="861.82" y="1115.15" width="34.26" height="34.26"/><rect class="cls-5" x="483.22" y="901.34" width="34.26" height="34.26" transform="translate(-502.9 622.81) rotate(-45)"/><rect class="cls-5" x="615.95" y="36.04" width="34.26" height="34.26" transform="translate(147.83 463.23) rotate(-45)"/><rect class="cls-5" x="41.71" y="40" width="34.26" height="34.26" transform="translate(-23.16 58.34) rotate(-45)"/><rect class="cls-5" x="262.03" y="1115.15" width="34.26" height="34.26" transform="translate(-718.88 529.03) rotate(-45)"/><rect class="cls-3" x="358.36" y="706.46" width="34.26" height="34.26"/><rect class="cls-3" x="950.91" y="166.8" width="34.26" height="34.26" transform="translate(413.59 -630.63) rotate(45)"/><rect class="cls-2" x="1021.23" y="876.9" width="57.34" height="57.34"/><polygon class="cls-4" points="1090.95 866.31 1033.61 866.31 1021.23 876.9 1078.57 876.9 1090.95 866.31"/><polygon class="cls-4" points="1090.95 923.65 1090.95 866.31 1078.57 876.9 1078.57 934.24 1090.95 923.65"/><rect class="cls-5" x="58.84" y="791.23" width="57.34" height="57.34"/><polygon class="cls-5" points="128.56 780.65 71.22 780.65 58.84 791.23 116.18 791.23 128.56 780.65"/><polygon class="cls-5" points="128.56 837.99 128.56 780.65 116.18 791.23 116.18 848.58 128.56 837.99"/><rect class="cls-3" x="497.55" y="126.93" width="57.34" height="57.34"/><polygon class="cls-3" points="567.27 116.34 509.93 116.34 497.55 126.93 554.89 126.93 567.27 116.34"/><polygon class="cls-3" points="567.27 173.69 567.27 116.34 554.89 126.93 554.89 184.27 567.27 173.69"/></g><g id="Layer_3" data-name="Layer 3"><rect class="cls-4" x="434.65" y="432.94" width="334.12" height="334.12" transform="translate(600.5 -249.74) rotate(45)"/><polyline class="cls-2" points="769.1 497.09 872.02 600 835.48 636.54"/><line class="cls-2" x1="681.99" y1="409.98" x2="738.45" y2="466.43"/><polyline class="cls-2" points="569.08 362.32 601.71 329.69 660.58 388.56"/><line class="cls-2" x1="433.54" y1="497.86" x2="533.98" y2="397.42"/><polyline class="cls-2" points="433.54 702.14 331.41 600 378.47 552.94"/><line class="cls-2" x1="542.53" y1="811.12" x2="458.17" y2="726.76"/><polyline class="cls-2" points="695.28 776.74 601.71 870.3 570.88 839.47"/><line class="cls-2" x1="788.84" y1="683.17" x2="728.29" y2="743.73"/></g></svg>